<?xml version="1.0" encoding="utf-8"?>
<!-- Generator: Adobe Illustrator 28.2.0, SVG Export Plug-In . SVG Version: 6.00 Build 0)  -->
<svg version="1.1" id="Layer_1" xmlns="http://www.w3.org/2000/svg" xmlns:xlink="http://www.w3.org/1999/xlink" x="0px" y="0px"
	 viewBox="0 0 240 38" style="enable-background:new 0 0 240 38;" xml:space="preserve">
<style type="text/css">
	.st0{fill:#316B84;}
	.st1{fill:none;stroke:#E41D19;stroke-width:6;stroke-miterlimit:10;}
	.st2{fill:#009CFF;stroke:#1D1D1B;stroke-width:0.75;stroke-miterlimit:10;}
</style>
<g>
	<g>
		<path class="st0" d="M59.7,28L53,4.2L42.2,4l1.4,4.4l1.4-0.3l-7.9,24.2h8.4l-0.6-2.3l-0.8-3.3l8.9-5.7l1.8,11.2h8v-4.7L59.7,28z
			 M45.6,20.2l3.1-10.8h1.5l2,7.4L45.6,20.2z"/>
		<path class="st0" d="M78.7,28v-7.6l-4.1-2.5l3.3-3.8l-0.5-7.5l-2.8-2.4H56.7v5.3l3.8-1.1l2.3,13.4L60,22.5l1,3.9l5.1-0.5l0.4-6.1
			l4.3,0.1l3.2,3.6v8.9l12.9,1.5v-5.3L78.7,28z M73.3,13.3l-2.2,1.4h-4.6L66,8.2h5.7l1.6,1.4L73.3,13.3L73.3,13.3z"/>
		<polygon class="st0" points="84.7,4.2 93,4.2 95.8,6.5 96.3,10.9 92.2,12.4 91.8,9.7 89,8.3 85.9,9.8 83.9,15 85.5,20.9 
			88.5,22.4 92,20.6 92,18.6 96.3,17 95.8,22.9 91.8,26.9 84.2,26.5 80.8,23.6 78.9,14.9 80.8,6.9 		"/>
		<polygon class="st0" points="97.6,4.2 103.3,4.2 103,21.1 108.7,20.1 108.3,6.4 113.8,3.3 113.9,19.9 115.8,19.7 115.3,25.9 
			113.9,25.9 114.3,32.4 108.7,32.4 108.7,26.4 103,26.4 103,32.4 91.8,33.8 92.2,28.9 97.9,28 		"/>
		<polygon class="st0" points="147.4,28.9 147.4,32.4 162.9,32.4 162.5,25.4 159.5,26 158.9,27.7 154.1,27.2 154.1,21.5 160.8,20.9 
			160.8,16.5 153.9,16.5 153.9,9.2 158.6,8.4 159.2,9.8 161.9,10.1 162.6,4 147.4,4 147.4,6.5 148.7,7.5 148.7,28.4 		"/>
		<polygon class="st0" points="163.9,9.2 163.9,4 172.3,4 170.4,26.9 179.6,24.7 179.6,32.4 164.5,32.3 164.6,28.7 165.7,27.8 
			165.7,9.6 		"/>
		<path class="st0" d="M193.7,32.4l-0.6-2.5l-2.8-1.9l-4.3-20.1l0-3.8h-11.3l0,3.2l1.9-0.3l-2.8,14.1l-1.4,0.6v2.9l6.3-1.3l0.4-2.7
			l4.6-0.9l1.7,12.9H193.7z M179.4,15.1l1.6-6.5l0.9,0.2l0.9,5.4L179.4,15.1z"/>
		<polygon class="st0" points="208.5,21.7 210.6,21.1 210,18.1 200.5,17.5 198.9,21.1 203.6,21.9 203.3,23.9 200.6,25.2 196.4,23.8 
			194.5,17.2 196.2,10 200.1,8.5 203.3,9.6 202.9,11.8 207.8,13.6 208.8,9.7 204.7,4.2 195.6,4.2 191.2,7.4 189.3,16.9 192.1,27.5 
			199,30.5 203.2,29.3 203.1,32.4 209,32.4 209.4,30 207.4,29 		"/>
		<path class="st0" d="M230.4,6.3L226.4,4l-8.6,0l-4.1,2.9l-2.6,8.9l1.5,11.8l5.6,4.7l7.6,0l5.7-4.6l2.5-12.5L230.4,6.3z
			 M228.2,21.8l-3.9,5.5l-2.2,0.4l-4.6-3.5l-1.5-8.5l2.4-7l5.1-0.5l3,1.8l1.7,5.8L228.2,21.8z"/>
		<path class="st0" d="M116.1,27.5l-0.2,4.9l12.3,0.1l-0.8-5l-2.9-0.5l0.1-17.6l2.4-0.4l-0.1-4.8L116,4.4l0.1,4.6l3.2,0.6l-0.4,17.7
			L116.1,27.5z"/>
		<path class="st0" d="M141.3,4.2l-12.9-0.4v4.3l1.9,0.6v25.1l-1.8,1.4l0,2.6h8.2L136,28h6.1l4.6-4.5V7.3L141.3,4.2z M141.4,20.5
			l-2.5,1.9l-3.2,0.2l-0.2-13.2h3.9l2.1,1.7V20.5z"/>
	</g>
	<g>
		<path class="st0" d="M14.1,11.3c0,0.4,0,0.7-0.1,1.1c0.4,0.1,0.8,0.1,1.2,0.1s0.8,0,1.2-0.1c0-0.3-0.1-0.7-0.1-1.1
			c0-3.2,1.9-6,4.7-7.2c-0.9-2.3-3.1-4-5.8-4s-4.9,1.7-5.8,4C12.2,5.3,14.1,8,14.1,11.3z"/>
		<path class="st0" d="M18,11.3c0,0.2,0,0.3,0,0.5c0,0.3,0.1,0.6,0.1,0.9c0.1,0.3,0.1,0.6,0.2,0.8c0.1,0.3,0.2,0.6,0.4,0.9
			c1.4-1.3,3.3-2.1,5.4-2.1s4,0.8,5.4,2.1c0.5-0.9,0.8-1.9,0.8-3c0-3.4-2.8-6.2-6.2-6.2c-0.4,0-0.8,0-1.2,0.1
			c-0.3,0.1-0.6,0.1-0.8,0.2c-0.3,0.1-0.6,0.2-0.8,0.3C19.4,6.8,18,8.9,18,11.3z"/>
		<path class="st0" d="M6.2,12.2c2.1,0,4,0.8,5.4,2.1c0.1-0.3,0.3-0.6,0.4-0.9c0.1-0.3,0.2-0.5,0.2-0.8c0.1-0.3,0.1-0.6,0.1-0.9
			c0-0.1,0-0.3,0-0.5c0-2.4-1.4-4.5-3.4-5.5C8.8,5.6,8.5,5.5,8.2,5.4C7.9,5.3,7.7,5.2,7.4,5.2C7,5.1,6.6,5.1,6.2,5.1
			C2.8,5.1,0,7.8,0,11.3c0,1.1,0.3,2.1,0.8,3C2.2,13,4.1,12.2,6.2,12.2z"/>
		<path class="st0" d="M29.2,16.3c-0.2-0.2-0.4-0.4-0.6-0.6c-1.1-1.1-2.7-1.8-4.4-1.8c-1.7,0-3.2,0.7-4.4,1.8
			c-0.2,0.2-0.4,0.4-0.6,0.6c-0.2,0.2-0.3,0.5-0.5,0.7c-0.2,0.3-0.4,0.7-0.5,1.1c2.8,1.2,4.8,4,4.8,7.3c0,0.3,0,0.5,0,0.8
			c0.4,0.1,0.8,0.1,1.1,0.1c3.4,0,6.2-2.8,6.2-6.2c0-1.1-0.3-2.1-0.8-3C29.5,16.8,29.4,16.6,29.2,16.3z"/>
		<path class="st0" d="M12.1,18.1c-0.1-0.4-0.3-0.8-0.5-1.1c-0.1-0.3-0.3-0.5-0.5-0.7c-0.2-0.2-0.4-0.4-0.6-0.6
			c-1.1-1.1-2.7-1.8-4.4-1.8S3,14.6,1.8,15.7c-0.2,0.2-0.4,0.4-0.6,0.6c-0.2,0.2-0.3,0.5-0.5,0.7C0.3,17.9,0,19,0,20.1
			c0,3.4,2.8,6.2,6.2,6.2c0.4,0,0.8,0,1.1-0.1c0-0.3,0-0.5,0-0.8C7.3,22.1,9.3,19.3,12.1,18.1z"/>
		<path class="st0" d="M18,19.9c-0.3-0.1-0.5-0.3-0.8-0.4c-0.3-0.1-0.5-0.2-0.8-0.2c-0.4-0.1-0.8-0.1-1.1-0.1s-0.8,0-1.1,0.1
			c-0.3,0-0.6,0.1-0.8,0.2c-0.3,0.1-0.6,0.2-0.8,0.4c-2,1-3.4,3.1-3.4,5.5c0,0.1,0,0.1,0,0.2c0,0.3,0,0.6,0.1,0.9
			c0.1,0.3,0.1,0.6,0.2,0.8c0.8,2.5,3.2,4.3,5.9,4.3s5.1-1.8,5.9-4.3c0.1-0.3,0.2-0.5,0.2-0.8c0.1-0.3,0.1-0.6,0.1-0.9
			c0-0.1,0-0.1,0-0.2C21.5,23,20.1,20.9,18,19.9z"/>
	</g>
</g>
<line class="st1" x1="38.6" y1="31.6" x2="125.9" y2="5.1"/>
<line class="st1" x1="219.4" y1="93.6" x2="218.8" y2="93.1"/>
<g>
	<path class="st2" d="M54.4,11.9v19.6h-7.9V11.9h-6.1V4h20v7.9H54.4z"/>
	<path class="st2" d="M73.4,11.3v8.1c-0.5-0.3-1-0.4-1.4-0.4c-1.3,0-2,1-2,3.1v9.5h-7.3v-11c0-2.9,0.8-5.2,2.3-6.9
		c1.5-1.7,3.6-2.6,6.1-2.6C71.8,11,72.5,11.1,73.4,11.3z"/>
	<path class="st2" d="M94.7,22.7H83.6c-0.2-0.6-0.3-1.1-0.3-1.6c0-0.7,0.1-1.3,0.4-2h3.7c-0.3-1.5-1.1-2.2-2.4-2.2
		c-0.9,0-1.7,0.4-2.2,1.2c-0.6,0.8-0.9,1.8-0.9,3.1c0,1.3,0.3,2.4,0.8,3.2c0.6,0.8,1.3,1.2,2.2,1.2c0.7,0,1.4-0.4,2.1-1.1l4.2,5.2
		c-1.9,1.6-4.1,2.4-6.5,2.4c-2.9,0-5.3-1-7.3-3c-2-2-2.9-4.5-2.9-7.4c0-2.9,1-5.4,3-7.5c2-2,4.4-3,7.3-3c2.8,0,5.2,1,7.1,3
		c1.9,2,2.9,4.4,2.9,7.3C94.8,21.6,94.8,22.1,94.7,22.7z"/>
	<path class="st2" d="M116.2,4L108,23.7h8.2v7.9H96.1l8.2-19.6h-8.7V4H116.2z"/>
	<path class="st2" d="M125.7,11.5v20.1h-7.3V11.5H125.7z M122,2.5c1,0,1.8,0.4,2.6,1.1c0.7,0.7,1.1,1.6,1.1,2.6c0,1-0.3,1.9-1,2.6
		c-0.7,0.7-1.6,1-2.6,1c-1.1,0-1.9-0.3-2.6-1c-0.7-0.7-1-1.5-1-2.6c0-1,0.4-1.8,1.1-2.6C120.2,2.9,121,2.5,122,2.5z"/>
</g>
<image style="overflow:visible;" width="112" height="112" xlink:href="D:\Wichtige Daten\ZSR\Twitch\Partner\zsrBlameTrez\3-2.png"  transform="matrix(0.2562 0 0 0.251 1.79 1.67)">
</image>
</svg>
